<?xml version="1.0" encoding="UTF-8"?>
<svg width="1920" height="1080" viewBox="0 0 1920 1080" xmlns="http://www.w3.org/2000/svg" preserveAspectRatio="none">
  <defs>
    <linearGradient id="waveGrad" x1="0" y1="0" x2="0" y2="1">
      <stop offset="0%" stop-color="#0ea5e9" stop-opacity="0.35"/>
      <stop offset="50%" stop-color="#38bdf8" stop-opacity="0.3"/>
      <stop offset="100%" stop-color="#ffffff" stop-opacity="0.5"/>
    </linearGradient>
    <linearGradient id="waveGrad2" x1="0" y1="0" x2="0" y2="1">
      <stop offset="0%" stop-color="#0369a1" stop-opacity="0.35"/>
      <stop offset="50%" stop-color="#0ea5e9" stop-opacity="0.3"/>
      <stop offset="100%" stop-color="#ffffff" stop-opacity="0.5"/>
    </linearGradient>
    <filter id="blur" x="-10%" y="-10%" width="120%" height="120%">
      <feGaussianBlur stdDeviation="8" />
    </filter>
  </defs>

  <!-- Background -->
  <rect x="0" y="0" width="100%" height="100%" fill="#f0f9ff" />

  <!-- Wave layers -->
  <path d="M0 760 C 240 720 480 800 720 780 C 960 760 1200 700 1440 720 C 1600 732 1760 760 1920 740 L 1920 1080 L 0 1080 Z" fill="url(#waveGrad)"/>
  <path d="M0 820 C 260 860 520 820 780 840 C 1040 860 1300 920 1560 900 C 1740 886 1830 820 1920 800 L 1920 1080 L 0 1080 Z" fill="url(#waveGrad2)" filter="url(#blur)"/>
  <path d="M0 900 C 300 940 600 900 900 920 C 1200 940 1500 980 1800 960 L 1920 960 L 1920 1080 L 0 1080 Z" fill="#ffffff" opacity="0.7"/>
</svg>
